<mxfile host="65bd71144e">
    <diagram id="ka2Z4WfoGc7oIApocTU2" name="Page-1">
        <mxGraphModel dx="2114" dy="1212" grid="1" gridSize="10" guides="1" tooltips="1" connect="1" arrows="1" fold="1" page="0" pageScale="1" pageWidth="850" pageHeight="1100" math="0" shadow="0">
            <root>
                <mxCell id="0"/>
                <mxCell id="1" parent="0"/>
                <mxCell id="13" value=":Client" style="shape=umlLifeline;perimeter=lifelinePerimeter;whiteSpace=wrap;html=1;container=1;collapsible=0;recursiveResize=0;outlineConnect=0;fontSize=14;" vertex="1" parent="1">
                    <mxGeometry x="150" width="100" height="940" as="geometry"/>
                </mxCell>
                <mxCell id="17" value="" style="html=1;points=[];perimeter=orthogonalPerimeter;fontSize=14;" vertex="1" parent="13">
                    <mxGeometry x="45" y="80" width="10" height="840" as="geometry"/>
                </mxCell>
                <mxCell id="42" value="If reservation confirmed, make payment" style="html=1;verticalAlign=bottom;endArrow=block;fontSize=12;" edge="1" parent="13">
                    <mxGeometry width="80" relative="1" as="geometry">
                        <mxPoint x="60" y="660" as="sourcePoint"/>
                        <mxPoint x="680" y="660" as="targetPoint"/>
                    </mxGeometry>
                </mxCell>
                <mxCell id="14" value=":Reservation" style="shape=umlLifeline;perimeter=lifelinePerimeter;whiteSpace=wrap;html=1;container=1;collapsible=0;recursiveResize=0;outlineConnect=0;fontSize=14;" vertex="1" parent="1">
                    <mxGeometry x="470" width="100" height="940" as="geometry"/>
                </mxCell>
                <mxCell id="22" value="" style="html=1;points=[];perimeter=orthogonalPerimeter;fontSize=12;" vertex="1" parent="14">
                    <mxGeometry x="45" y="190" width="10" height="60" as="geometry"/>
                </mxCell>
                <mxCell id="25" value="" style="html=1;points=[];perimeter=orthogonalPerimeter;fontSize=12;" vertex="1" parent="14">
                    <mxGeometry x="45" y="280" width="10" height="340" as="geometry"/>
                </mxCell>
                <mxCell id="58" value="" style="html=1;points=[];perimeter=orthogonalPerimeter;fontSize=12;" vertex="1" parent="14">
                    <mxGeometry x="45" y="770" width="10" height="60" as="geometry"/>
                </mxCell>
                <mxCell id="15" value=":Availability" style="shape=umlLifeline;perimeter=lifelinePerimeter;whiteSpace=wrap;html=1;container=1;collapsible=0;recursiveResize=0;outlineConnect=0;fontSize=14;" vertex="1" parent="1">
                    <mxGeometry x="630" width="100" height="940" as="geometry"/>
                </mxCell>
                <mxCell id="27" value="" style="html=1;points=[];perimeter=orthogonalPerimeter;fontSize=12;" vertex="1" parent="15">
                    <mxGeometry x="45" y="300" width="10" height="310" as="geometry"/>
                </mxCell>
                <mxCell id="28" value="&lt;font style=&quot;font-size: 12px;&quot;&gt;Check availability&lt;/font&gt;" style="html=1;verticalAlign=bottom;endArrow=block;fontSize=14;entryX=-0.251;entryY=0.156;entryDx=0;entryDy=0;entryPerimeter=0;" edge="1" parent="15">
                    <mxGeometry x="-0.0175" width="80" relative="1" as="geometry">
                        <mxPoint x="-97.49000000000001" y="320.64" as="sourcePoint"/>
                        <mxPoint x="45" y="320" as="targetPoint"/>
                        <mxPoint as="offset"/>
                    </mxGeometry>
                </mxCell>
                <mxCell id="16" value=":Payment" style="shape=umlLifeline;perimeter=lifelinePerimeter;whiteSpace=wrap;html=1;container=1;collapsible=0;recursiveResize=0;outlineConnect=0;fontSize=14;" vertex="1" parent="1">
                    <mxGeometry x="790" width="100" height="940" as="geometry"/>
                </mxCell>
                <mxCell id="43" value="" style="html=1;points=[];perimeter=orthogonalPerimeter;fontSize=12;" vertex="1" parent="16">
                    <mxGeometry x="45" y="640" width="10" height="270" as="geometry"/>
                </mxCell>
                <mxCell id="18" value=":Listing" style="shape=umlLifeline;perimeter=lifelinePerimeter;whiteSpace=wrap;html=1;container=1;collapsible=0;recursiveResize=0;outlineConnect=0;fontSize=14;" vertex="1" parent="1">
                    <mxGeometry x="310" width="100" height="940" as="geometry"/>
                </mxCell>
                <mxCell id="19" value="" style="html=1;points=[];perimeter=orthogonalPerimeter;fontSize=14;" vertex="1" parent="18">
                    <mxGeometry x="45" y="90" width="10" height="60" as="geometry"/>
                </mxCell>
                <mxCell id="21" value="Listings" style="html=1;verticalAlign=bottom;endArrow=blockThin;endSize=8;fontSize=12;endFill=1;" edge="1" parent="18">
                    <mxGeometry relative="1" as="geometry">
                        <mxPoint x="40" y="140" as="sourcePoint"/>
                        <mxPoint x="-100" y="140" as="targetPoint"/>
                    </mxGeometry>
                </mxCell>
                <mxCell id="20" value="&lt;font style=&quot;font-size: 12px;&quot;&gt;Search/filter listings&lt;/font&gt;" style="html=1;verticalAlign=bottom;endArrow=block;fontSize=14;entryX=-0.251;entryY=0.156;entryDx=0;entryDy=0;entryPerimeter=0;" edge="1" parent="1" target="19">
                    <mxGeometry x="-0.0175" width="80" relative="1" as="geometry">
                        <mxPoint x="210" y="100" as="sourcePoint"/>
                        <mxPoint x="290" y="100" as="targetPoint"/>
                        <mxPoint as="offset"/>
                    </mxGeometry>
                </mxCell>
                <mxCell id="23" value="Get listings details" style="html=1;verticalAlign=bottom;endArrow=block;fontSize=12;" edge="1" parent="1">
                    <mxGeometry width="80" relative="1" as="geometry">
                        <mxPoint x="210" y="200" as="sourcePoint"/>
                        <mxPoint x="510" y="200" as="targetPoint"/>
                    </mxGeometry>
                </mxCell>
                <mxCell id="24" value="Listings details" style="html=1;verticalAlign=bottom;endArrow=block;fontSize=12;" edge="1" parent="1">
                    <mxGeometry width="80" relative="1" as="geometry">
                        <mxPoint x="510" y="239.9999999999999" as="sourcePoint"/>
                        <mxPoint x="210" y="239.9999999999999" as="targetPoint"/>
                    </mxGeometry>
                </mxCell>
                <mxCell id="26" value="Booking" style="html=1;verticalAlign=bottom;endArrow=block;fontSize=12;" edge="1" parent="1">
                    <mxGeometry width="80" relative="1" as="geometry">
                        <mxPoint x="210" y="289.9999999999999" as="sourcePoint"/>
                        <mxPoint x="510" y="289.9999999999999" as="targetPoint"/>
                    </mxGeometry>
                </mxCell>
                <mxCell id="33" value="alt" style="shape=umlFrame;tabWidth=110;tabHeight=30;tabPosition=left;html=1;boundedLbl=1;labelInHeader=1;width=60;height=30;fontSize=12;" vertex="1" parent="1">
                    <mxGeometry x="40" y="340" width="670" height="250" as="geometry"/>
                </mxCell>
                <mxCell id="34" value="[Listing available]" style="text;fontSize=12;" vertex="1" parent="33">
                    <mxGeometry width="100" height="20" relative="1" as="geometry">
                        <mxPoint x="20" y="40" as="offset"/>
                    </mxGeometry>
                </mxCell>
                <mxCell id="35" value="[Listing unavailable]" style="line;strokeWidth=1;dashed=1;labelPosition=center;verticalLabelPosition=bottom;align=left;verticalAlign=top;spacingLeft=20;spacingTop=15;fontSize=12;" vertex="1" parent="33">
                    <mxGeometry y="160" width="670" height="10" as="geometry"/>
                </mxCell>
                <mxCell id="36" value="&lt;font style=&quot;font-size: 12px;&quot;&gt;True&lt;/font&gt;" style="html=1;verticalAlign=bottom;endArrow=block;fontSize=14;entryX=-0.251;entryY=0.156;entryDx=0;entryDy=0;entryPerimeter=0;" edge="1" parent="33">
                    <mxGeometry x="-0.0175" width="80" relative="1" as="geometry">
                        <mxPoint x="632.49" y="30" as="sourcePoint"/>
                        <mxPoint x="490" y="30.639999999999873" as="targetPoint"/>
                        <mxPoint as="offset"/>
                    </mxGeometry>
                </mxCell>
                <mxCell id="37" value="" style="html=1;points=[];perimeter=orthogonalPerimeter;fontSize=12;" vertex="1" parent="33">
                    <mxGeometry x="480" y="80" width="10" height="40" as="geometry"/>
                </mxCell>
                <mxCell id="38" value="Make &lt;br&gt;reservation" style="edgeStyle=orthogonalEdgeStyle;html=1;align=left;spacingLeft=2;endArrow=block;rounded=0;entryX=1;entryY=0;fontSize=12;" edge="1" target="37" parent="33">
                    <mxGeometry relative="1" as="geometry">
                        <mxPoint x="485" y="60" as="sourcePoint"/>
                        <Array as="points">
                            <mxPoint x="515" y="60"/>
                        </Array>
                    </mxGeometry>
                </mxCell>
                <mxCell id="39" value="Reservation confirmed" style="html=1;verticalAlign=bottom;endArrow=block;fontSize=12;" edge="1" parent="33">
                    <mxGeometry width="80" relative="1" as="geometry">
                        <mxPoint x="470" y="149.9999999999999" as="sourcePoint"/>
                        <mxPoint x="170" y="149.9999999999999" as="targetPoint"/>
                    </mxGeometry>
                </mxCell>
                <mxCell id="40" value="&lt;font style=&quot;font-size: 12px;&quot;&gt;False&lt;/font&gt;" style="html=1;verticalAlign=bottom;endArrow=block;fontSize=14;entryX=-0.251;entryY=0.156;entryDx=0;entryDy=0;entryPerimeter=0;" edge="1" parent="33">
                    <mxGeometry x="-0.0175" width="80" relative="1" as="geometry">
                        <mxPoint x="632.49" y="200" as="sourcePoint"/>
                        <mxPoint x="490" y="200.63999999999987" as="targetPoint"/>
                        <mxPoint as="offset"/>
                    </mxGeometry>
                </mxCell>
                <mxCell id="41" value="Reservation failed" style="html=1;verticalAlign=bottom;endArrow=block;fontSize=12;" edge="1" parent="33">
                    <mxGeometry width="80" relative="1" as="geometry">
                        <mxPoint x="470" y="230" as="sourcePoint"/>
                        <mxPoint x="170" y="230" as="targetPoint"/>
                    </mxGeometry>
                </mxCell>
                <mxCell id="54" value="alt" style="shape=umlFrame;tabWidth=110;tabHeight=30;tabPosition=left;html=1;boundedLbl=1;labelInHeader=1;width=60;height=30;fontSize=12;" vertex="1" parent="1">
                    <mxGeometry x="40" y="690" width="830" height="200" as="geometry"/>
                </mxCell>
                <mxCell id="55" value="[Payment successful]" style="text;fontSize=12;" vertex="1" parent="54">
                    <mxGeometry width="100" height="20" relative="1" as="geometry">
                        <mxPoint x="20" y="40" as="offset"/>
                    </mxGeometry>
                </mxCell>
                <mxCell id="56" value="[Payment failed]" style="line;strokeWidth=1;dashed=1;labelPosition=center;verticalLabelPosition=bottom;align=left;verticalAlign=top;spacingLeft=20;spacingTop=15;fontSize=12;" vertex="1" parent="54">
                    <mxGeometry y="60" width="830" height="8" as="geometry"/>
                </mxCell>
                <mxCell id="57" value="Payment confirmed" style="html=1;verticalAlign=bottom;endArrow=block;fontSize=12;" edge="1" parent="54">
                    <mxGeometry width="80" relative="1" as="geometry">
                        <mxPoint x="790" y="37.5" as="sourcePoint"/>
                        <mxPoint x="170" y="37.5" as="targetPoint"/>
                    </mxGeometry>
                </mxCell>
                <mxCell id="61" value="Reservation canceled" style="html=1;verticalAlign=bottom;endArrow=block;fontSize=12;entryX=0.952;entryY=0.563;entryDx=0;entryDy=0;entryPerimeter=0;exitX=0.952;exitY=0.563;exitDx=0;exitDy=0;exitPerimeter=0;" edge="1" parent="54">
                    <mxGeometry width="80" relative="1" as="geometry">
                        <mxPoint x="490" y="130" as="sourcePoint"/>
                        <mxPoint x="790.1600000000001" y="130.0999999999999" as="targetPoint"/>
                    </mxGeometry>
                </mxCell>
                <mxCell id="66" value="Reservation failed" style="html=1;verticalAlign=bottom;endArrow=block;fontSize=12;" edge="1" parent="54">
                    <mxGeometry width="80" relative="1" as="geometry">
                        <mxPoint x="790" y="180" as="sourcePoint"/>
                        <mxPoint x="180" y="180" as="targetPoint"/>
                    </mxGeometry>
                </mxCell>
                <mxCell id="60" value="Cancel reservation" style="html=1;verticalAlign=bottom;endArrow=block;fontSize=12;entryX=0.952;entryY=0.563;entryDx=0;entryDy=0;entryPerimeter=0;" edge="1" parent="1">
                    <mxGeometry width="80" relative="1" as="geometry">
                        <mxPoint x="830" y="780" as="sourcePoint"/>
                        <mxPoint x="530" y="780" as="targetPoint"/>
                    </mxGeometry>
                </mxCell>
            </root>
        </mxGraphModel>
    </diagram>
</mxfile>